<?xml version="1.0" encoding="UTF-8"?><svg xmlns="http://www.w3.org/2000/svg" viewBox="0 0 455.81 455.81"><defs><style>.cls-1{fill:#0867a9;}.cls-2{fill:none;stroke:#0867a9;stroke-miterlimit:10;stroke-width:10px;}</style></defs><g id="Ebene_1"><circle class="cls-2" cx="227.905" cy="227.905" r="222.905"/></g><g id="Warmwasser"><path class="cls-1" d="m133.662,172.21c.54,4.094,1.081,8.187,1.621,12.281l3.893,29.494c1.57,11.895,3.14,23.789,4.71,35.684,1.357,10.284,2.715,20.568,4.072,30.852.66,4.999,1.318,9.999,1.98,14.998.009.07.019.141.028.211.228,1.725.547,3.136,1.831,4.419,1.084,1.084,2.863,1.9,4.419,1.831,1.616-.072,3.293-.603,4.419-1.831,1.035-1.128,2.041-2.823,1.831-4.419-.54-4.094-1.081-8.187-1.621-12.281l-3.893-29.494c-1.57-11.895-3.14-23.789-4.71-35.684-1.357-10.284-2.715-20.568-4.072-30.852-.66-4.999-1.318-9.999-1.98-14.998-.009-.07-.019-.141-.028-.211-.228-1.725-.547-3.136-1.831-4.419-1.084-1.084-2.863-1.9-4.419-1.831-1.616.072-3.293.603-4.419,1.831-1.035,1.128-2.041,2.823-1.831,4.419h0Z"/><path class="cls-1" d="m144.93,207.914c.843.016.644.367-.64-.146.194.078.497.114.705.153.256.048,1.049.402-.092-.083s-.348-.164-.131-.023c.185.12.382.25.574.358.855.484-1.223-1.14-.554-.415.313.339.655.656.969.996.97,1.049-.902-1.302-.096-.133.278.404.558.806.827,1.217.519.794,1.016,1.602,1.552,2.385,1.514,2.213,3.197,4.281,5.53,5.678,2.828,1.693,6.204,2.048,9.388,1.352,5.206-1.137,7.93-5.748,10.66-9.827.226-.338.469-.665.697-1.001.582-.857-1.092,1.259-.39.509.107-.114.202-.241.307-.357.299-.334.718-.618.987-.968-.915,1.192-1.177.793-.539.438.196-.109.396-.222.587-.338.84-.512-1.621.458-.646.28.219-.04.476-.113.689-.179.492-.152.942.248-.922.123.25.017.536-.008.787-.015,1.074-.03-1.654-.426-.664-.109.134.043.32.084.464.111.717.133.647.666-.627-.311.22.169.547.298.791.437,1.166.665-1.147-1.126-.198-.135.296.309.589.614.876.932.359.398.507.95-.458-.613.125.203.289.392.427.588.283.402.553.814.821,1.227,1.252,1.93,2.483,3.937,4.096,5.592,4.154,4.262,11.099,5.392,16.106,1.885,2.22-1.555,3.824-3.56,5.311-5.811.501-.757.976-1.531,1.481-2.286.254-.38.508-.88.841-1.195.058-.055-1.143,1.34-.534.703.215-.225.405-.475.624-.699.16-.164.341-.311.497-.477.346-.368.844-.244-.737.547.353-.176.85-.456,1.161-.695-1.438,1.102-1.361.474-.851.379.219-.041.476-.112.689-.179.994-.311-1.739.079-.664.109.253.007.535.033.787.015-1.704.126-1.362-.283-.687-.072.188.059.48.19.673.204-1.352-.093-1.338-.688-.666-.25.122.08.261.162.387.232.638.356.374.751-.539-.438.129.168.354.313.507.463.334.327.602.726.936,1.047-1.284-1.233-.747-1.008-.398-.498.092.134.188.265.28.399.28.406.549.82.816,1.234.513.795,1.013,1.599,1.561,2.37,1.543,2.17,3.25,4.223,5.647,5.495,5.454,2.894,12.054,1.341,15.924-3.364,1.495-1.818,2.672-3.807,4.005-5.736.092-.134.188-.265.28-.399.349-.511.887-.735-.398.498.306-.294.553-.662.855-.965.135-.136.282-.259.416-.395.696-.708-1.414.901-.554.415.192-.109.389-.238.574-.358.631-.408.798.15-.665.25.193-.013.485-.145.673-.204.675-.211,1.016.198-.687.072.166.012.359-.02.523-.02.831,0,.684.383-.64-.146.288.115.836.275,1.148.297-1.338-.094-1.343-.686-.666-.25.241.155.503.363.757.49-1.583-.791-1.083-.915-.738-.547.156.166.338.313.497.477.479.492,1.24,1.858.089-.004.47.761,1.031,1.477,1.516,2.231,1.231,1.915,2.481,3.937,4.156,5.498,2.347,2.188,5.132,3.444,8.347,3.64,5.938.363,10.031-3.708,13.014-8.303.494-.761.971-1.532,1.486-2.278.138-.2.286-.394.422-.595.583-.857-1.092,1.259-.39.509.318-.34.63-.685.952-1.022.943-.985-1.352.782-.198.135.192-.108.403-.218.587-.338.825-.537-1.618.495-.646.28.189-.042.385-.1.571-.153.622-.178.836.208-.805.098.25.017.536-.008.788-.015,1.062-.029-1.745-.425-.546-.083.186.053.383.112.571.153.972.215-1.471-.817-.646-.28.292.19.642.444.957.596-1.445-.696-1.049-.895-.568-.392.16.167.331.322.488.492.107.114.205.235.312.35.959,1.032-.793-1.145-.238-.329,1.058,1.556,2.037,3.175,3.157,4.687,1.558,2.104,3.285,4.063,5.705,5.197,2.954,1.385,6.474,1.813,9.585.63,3.022-1.149,5.141-3.094,7.053-5.637,1.132-1.506,2.092-3.131,3.161-4.682.806-1.169-1.066,1.182-.096.133.29-.313.585-.615.885-.918.44-.446.757-.233-.653.47.194-.097.374-.265.562-.377.184-.11.433-.189.6-.317-1.212.929-1.346.454-.626.311.21-.042.509-.075.705-.153-1.325.529-1.47.146-.64.146,1.486,0-1.535-.481-.164-.053.188.059.48.191.673.204-1.258-.086-1.387-.684-.765-.303.16.098.326.19.487.285,1.17.69-1.025-.959-.367-.289.271.276.556.53.815.819.154.172.291.382.457.541-1.283-1.23-.748-1.009-.398-.498.511.746,1.009,1.499,1.498,2.26,1.227,1.906,2.512,3.885,4.231,5.384,2.434,2.122,5.278,3.296,8.53,3.357,3.271.061,6.399-2.918,6.25-6.25-.154-3.438-2.745-6.185-6.25-6.25-.843-.016-.645-.367.64.146-.194-.078-.497-.114-.705-.153-.256-.048-1.049-.402.091.083s.347.163.13.023c-.185-.12-.382-.25-.574-.358-.855-.484,1.223,1.14.554.415-.313-.339-.655-.656-.969-.996-.97-1.049.902,1.302.096.133-.279-.404-.558-.806-.827-1.217-.519-.794-1.017-1.602-1.552-2.385-1.515-2.213-3.198-4.282-5.532-5.678-2.829-1.693-6.205-2.048-9.39-1.352-5.206,1.137-7.931,5.748-10.663,9.827-.226.338-.469.665-.698,1.001-.583.857,1.092-1.259.39-.509-.107.114-.202.241-.307.357-.299.334-.718.618-.987.968.916-1.193,1.176-.793.539-.438-.196.109-.396.222-.587.338-.84.512,1.621-.457.646-.28-.219.04-.476.113-.689.179-.493.152-.941-.249.922-.123-.25-.017-.536.008-.788.015-1.074.03,1.654.425.664.109-.135-.043-.32-.084-.465-.111-.716-.133-.648-.666.626.311-.22-.169-.547-.298-.791-.437-1.167-.665,1.147,1.126.198.135-.296-.309-.59-.614-.876-.932-.358-.397-.51-.951.458.613-.126-.203-.289-.392-.427-.588-.283-.402-.553-.814-.821-1.227-1.252-1.93-2.483-3.937-4.097-5.592-4.156-4.262-11.1-5.392-16.109-1.885-2.221,1.555-3.824,3.56-5.312,5.811-.501.757-.976,1.531-1.481,2.286-.254.38-.508.879-.842,1.195-.058.054,1.143-1.34.534-.703-.215.225-.405.475-.624.699-.16.164-.341.311-.497.477-.346.369-.843.242.737-.547-.353.176-.85.456-1.162.695,1.438-1.102,1.361-.474.851-.379-.219.041-.476.112-.689.179-.994.311,1.739-.079.664-.109-.253-.007-.535-.033-.787-.015,1.704-.126,1.362.283.688.072-.188-.059-.48-.19-.673-.204,1.352.093,1.337.688.666.25-.122-.08-.261-.162-.387-.232-.638-.357-.373-.751.54.438-.129-.168-.354-.313-.507-.463-.334-.327-.602-.726-.936-1.047,1.285,1.235.747,1.008.398.498-.092-.134-.188-.265-.28-.399-.28-.406-.548-.82-.816-1.234-.513-.795-1.013-1.599-1.561-2.37-1.543-2.17-3.249-4.223-5.647-5.495-5.454-2.894-12.054-1.341-15.924,3.364-1.495,1.818-2.672,3.807-4.005,5.736-.092.134-.188.265-.28.399-.349.511-.887.735.398-.498-.306.294-.553.662-.855.965-.135.136-.282.259-.416.395-.696.708,1.414-.901.554-.415-.192.109-.389.238-.574.358-.631.408-.798-.15.665-.25-.193.013-.485.145-.673.204-.675.211-1.016-.198.687-.072-.166-.012-.359.02-.523.02-.831,0-.684-.383.64.146-.288-.115-.836-.275-1.148-.297,1.337.094,1.343.686.666.25-.241-.155-.503-.363-.757-.49,1.582.79,1.083.915.737.547-.156-.166-.338-.313-.497-.477-.479-.492-1.241-1.858-.089.004-.47-.761-1.031-1.477-1.516-2.231-1.232-1.915-2.482-3.938-4.156-5.498-2.347-2.188-5.133-3.444-8.347-3.64-5.938-.363-10.03,3.708-13.013,8.303-.494.761-.971,1.532-1.486,2.278-.138.2-.286.394-.422.595-.582.857,1.092-1.259.39-.509-.318.34-.63.685-.952,1.022-.943.985,1.352-.782.198-.135-.192.108-.403.218-.587.338-.824.537,1.618-.495.646-.28-.188.042-.385.1-.571.153-.622.178-.837-.208.805-.098-.25-.017-.536.008-.787.015-1.061.029,1.745.425.547.083-.186-.053-.383-.112-.571-.153-.972-.215,1.471.817.646.28-.292-.191-.642-.444-.957-.596,1.447.698,1.049.894.569.392-.16-.167-.33-.322-.488-.492-.107-.114-.205-.235-.312-.35-.959-1.032.793,1.145.238.329-1.057-1.556-2.036-3.175-3.156-4.687-1.557-2.104-3.284-4.062-5.704-5.197-2.953-1.385-6.473-1.813-9.583-.63-3.021,1.149-5.14,3.094-7.052,5.637-1.132,1.506-2.091,3.131-3.16,4.682-.806,1.169,1.066-1.182.096-.133-.29.313-.585.615-.884.918-.439.445-.758.235.653-.47-.194.097-.374.265-.562.377-.183.11-.433.189-.6.317,1.211-.929,1.346-.454.627-.311-.21.042-.509.075-.705.153,1.325-.529,1.471-.146.64-.146-1.486,0,1.536.481.165.053-.188-.059-.48-.19-.673-.204,1.26.087,1.387.684.766.303-.159-.098-.325-.19-.487-.285-1.169-.69,1.025.959.367.289-.271-.276-.555-.53-.814-.819-.154-.172-.29-.382-.456-.541,1.285,1.235.747,1.008.398.498-.511-.747-1.008-1.499-1.498-2.26-1.226-1.906-2.511-3.885-4.229-5.384-2.433-2.122-5.277-3.296-8.528-3.357-3.271-.061-6.399,2.918-6.25,6.25.154,3.439,2.745,6.185,6.25,6.25h0Z"/><path class="cls-1" d="m156.986,302.845c4.711-.002,9.422-.004,14.133-.006,11.31-.005,22.621-.009,33.931-.014,13.635-.006,27.27-.011,40.905-.017l35.369-.015c5.748-.002,11.51.116,17.256-.007.081-.002.162,0,.243,0,3.269-.001,6.401-2.874,6.25-6.25s-2.746-6.251-6.25-6.25c-4.711.002-9.422.004-14.133.006-11.31.005-22.621.009-33.931.014-13.635.006-27.27.011-40.905.017l-35.369.015c-5.748.002-11.51-.116-17.256.007-.081.002-.162,0-.243,0-3.269.001-6.401,2.874-6.25,6.25s2.746,6.251,6.25,6.25h0Z"/><path class="cls-1" d="m309.649,172.157c-.54,4.094-1.081,8.187-1.621,12.281l-3.893,29.494c-1.57,11.895-3.14,23.789-4.71,35.684-1.357,10.284-2.715,20.568-4.072,30.852-.657,4.981-1.545,9.991-1.98,14.998-.006.071-.019.141-.028.211-.194,1.466.838,3.427,1.831,4.419,1.084,1.084,2.863,1.9,4.419,1.831,1.616-.072,3.293-.603,4.419-1.831,1.201-1.308,1.6-2.676,1.831-4.419.54-4.094,1.081-8.187,1.621-12.281l3.893-29.494c1.57-11.895,3.14-23.789,4.71-35.684,1.357-10.284,2.715-20.568,4.072-30.852.657-4.981,1.545-9.991,1.98-14.998.006-.071.019-.141.028-.211.194-1.466-.838-3.427-1.831-4.419-1.084-1.084-2.863-1.9-4.419-1.831-1.616.072-3.293.603-4.419,1.831-1.201,1.308-1.6,2.676-1.831,4.419h0Z"/><path class="cls-1" d="m187.912,127.559c-.005.363-.058.736-.049,1.096.015.627.047-1,.133-.926.025.022-.067.381-.077.422-.08.312-.141.627-.236.936-.087.284-.52,1.362-.051.24.476-1.138.009-.086-.133.169-.122.218-.252.432-.389.641-.164.251-.824,1.123-.091.169s.05-.094-.145.123c-1.525,1.696-3.386,3.039-5.023,4.619-4.861,4.693-7.249,12.028-4.607,18.521,1.212,2.979,3.033,5.452,5.426,7.602.834.749,1.699,1.461,2.531,2.212.398.36.791.727,1.166,1.11.201.206.398.416.589.631.081.092.158.19.242.279.569.599-.546-.701-.516-.686.353.166.761,1.134.937,1.47.056.107.101.243.17.341.271.385-.398-.861-.371-.903-.046.071.311.908.339,1.009.074.269.122.543.188.814.224.925-.092-1.727-.06-.338.007.318.028.634.024.952-.004.345-.154,1.767.012.548.161-1.18,0-.118-.063.157-.072.309-.157.615-.258.916-.042.124-.1.247-.135.372-.136.482.374-.894.379-.896-.108.035-.393.763-.471.896-.127.215-.268.42-.403.629-.029.045-.213.361-.289.402-.173.091,1.052-1.218.594-.781-.413.394-.764.864-1.172,1.268-1.796,1.772-3.881,3.236-5.524,5.164-2.783,3.264-4.321,7.013-4.375,11.337-.041,3.27,2.904,6.4,6.25,6.25,3.421-.153,6.206-2.746,6.25-6.25.005-.363.058-.736.049-1.096-.015-.628-.047,1.001-.133.926-.025-.022.067-.381.077-.422.08-.312.141-.627.236-.936.087-.284.52-1.362.051-.24-.476,1.138-.009.085.133-.169.122-.218.252-.432.389-.641.164-.251.824-1.123.091-.169s-.05.094.145-.123c1.525-1.696,3.386-3.04,5.023-4.62,4.861-4.694,7.249-12.029,4.607-18.522-1.212-2.979-3.033-5.452-5.426-7.602-.834-.749-1.699-1.461-2.531-2.212-.398-.36-.791-.727-1.166-1.11-.201-.206-.398-.416-.589-.631-.081-.092-.158-.19-.242-.279-.569-.599.546.701.516.686-.353-.166-.761-1.134-.937-1.47-.056-.107-.101-.243-.17-.341-.271-.385.398.861.371.903.046-.071-.311-.908-.339-1.009-.074-.269-.122-.543-.188-.814-.224-.925.092,1.727.06.338-.007-.318-.028-.634-.024-.952.004-.345.154-1.767-.012-.547-.161,1.18,0,.118.063-.157.072-.309.157-.615.258-.916.042-.124.1-.247.135-.372.136-.482-.374.895-.379.896.108-.035.393-.763.471-.895.127-.215.268-.42.403-.629.029-.045.213-.361.289-.402.173-.091-1.052,1.218-.594.781.413-.394.764-.864,1.172-1.267,1.796-1.772,3.881-3.236,5.524-5.163,2.783-3.263,4.321-7.012,4.375-11.336.041-3.27-2.904-6.4-6.25-6.25-3.421.153-6.206,2.746-6.25,6.25h0Z"/><path class="cls-1" d="m226.717,126.084c-.004.367-.061.747-.048,1.111.023.671.052-1.038.135-.915.032.048-.062.368-.076.428-.073.319-.138.636-.231.95-.18.609-.779,1.491.171-.249-.265.485-.487.98-.79,1.446-.135.209-.29.405-.426.613-.385.588,1.001-1.19.519-.681-.113.119-.213.253-.322.375-1.51,1.711-3.353,3.079-4.973,4.678-4.869,4.808-7.274,12.209-4.644,18.806,1.21,3.036,3.048,5.559,5.455,7.77.825.758,1.682,1.481,2.504,2.241.425.393.842.794,1.24,1.214.17.18.332.367.499.549.059.064.317.324.319.378.001.033-.974-1.372-.524-.676.297.458.607.898.861,1.383.059.113.112.23.172.343.413.768-.361-.744-.322-.776-.023.019.272.81.295.893.089.318.147.638.221.959.215.936-.091-1.72-.064-.319.006.322.027.642.023.965-.004.345-.154,1.779.014.567.17-1.225-.029.051-.09.31-.063.267-.137.532-.222.793-.041.126-.095.251-.132.378-.202.694.665-1.401.33-.769-.14.263-.26.535-.408.794-.145.254-.301.501-.465.743-.354.521-1.006.908.31-.37-.41.399-.758.874-1.163,1.282-1.778,1.792-3.847,3.283-5.47,5.229-2.795,3.35-4.354,7.133-4.407,11.543-.04,3.27,2.903,6.4,6.25,6.25,3.42-.153,6.208-2.746,6.25-6.25.004-.367.061-.747.048-1.111-.023-.671-.052,1.039-.135.915-.032-.048.062-.368.076-.428.073-.319.138-.637.231-.95.18-.609.779-1.491-.171.249.265-.485.487-.98.79-1.446.135-.209.29-.405.426-.613.385-.588-1.001,1.19-.519.681.113-.119.213-.253.322-.376,1.51-1.711,3.353-3.079,4.973-4.679,4.869-4.808,7.274-12.209,4.644-18.807-1.21-3.036-3.048-5.559-5.455-7.77-.825-.758-1.682-1.481-2.504-2.241-.425-.393-.842-.794-1.24-1.214-.17-.18-.332-.367-.499-.549-.059-.064-.317-.324-.319-.378-.001-.033.974,1.372.524.676-.297-.458-.607-.898-.861-1.383-.059-.113-.112-.23-.172-.343-.413-.768.361.744.322.776.023-.019-.272-.81-.295-.893-.089-.318-.147-.638-.221-.959-.215-.936.091,1.72.064.319-.006-.322-.027-.642-.023-.965.004-.345.154-1.779-.014-.567-.17,1.225.029-.051.09-.31.063-.267.137-.532.222-.793.041-.126.095-.251.132-.378.202-.694-.665,1.401-.33.769.14-.263.26-.534.408-.794.145-.254.301-.501.465-.743.354-.522,1.006-.907-.31.37.41-.398.758-.874,1.163-1.282,1.778-1.792,3.847-3.283,5.47-5.229,2.795-3.349,4.354-7.133,4.407-11.542.04-3.27-2.903-6.4-6.25-6.25-3.42.153-6.208,2.746-6.25,6.25h0Z"/><path class="cls-1" d="m265.521,126.084c-.004.367-.061.747-.048,1.111.023.671.052-1.038.135-.915.032.048-.062.368-.076.428-.073.319-.138.636-.231.95-.18.609-.779,1.491.171-.249-.265.485-.487.98-.79,1.446-.135.209-.29.405-.426.613-.385.588,1.001-1.19.519-.681-.113.119-.213.253-.322.375-1.51,1.711-3.353,3.079-4.973,4.678-4.869,4.808-7.274,12.209-4.644,18.806,1.21,3.036,3.048,5.559,5.455,7.77.825.758,1.682,1.481,2.504,2.241.425.393.842.794,1.24,1.214.17.18.332.367.499.549.059.064.317.324.319.378.001.033-.974-1.372-.524-.676.297.458.607.898.861,1.383.059.113.112.23.172.343.413.768-.361-.744-.322-.776-.023.019.272.81.295.893.089.318.147.638.221.959.215.936-.091-1.72-.064-.319.006.322.027.642.023.965-.004.345-.154,1.779.014.567.17-1.225-.029.051-.09.31-.063.267-.137.532-.222.793-.041.126-.095.251-.132.378-.202.694.665-1.401.33-.769-.14.263-.26.535-.408.794-.145.254-.301.501-.465.743-.354.521-1.006.908.31-.37-.41.399-.758.874-1.163,1.282-1.778,1.792-3.847,3.283-5.47,5.229-2.795,3.35-4.354,7.133-4.407,11.543-.04,3.27,2.903,6.4,6.25,6.25,3.42-.153,6.208-2.746,6.25-6.25.004-.367.061-.747.048-1.111-.023-.671-.052,1.039-.135.915-.032-.048.062-.368.076-.428.073-.319.138-.637.231-.95.18-.609.779-1.491-.171.249.265-.485.487-.98.79-1.446.135-.209.29-.405.426-.613.385-.588-1.001,1.19-.519.681.113-.119.213-.253.322-.376,1.51-1.711,3.353-3.079,4.973-4.679,4.869-4.808,7.274-12.209,4.644-18.807-1.21-3.036-3.048-5.559-5.455-7.77-.825-.758-1.682-1.481-2.504-2.241-.425-.393-.842-.794-1.24-1.214-.17-.18-.332-.367-.499-.549-.059-.064-.317-.324-.319-.378-.001-.033.974,1.372.524.676-.297-.458-.607-.898-.861-1.383-.059-.113-.112-.23-.172-.343-.413-.768.361.744.322.776.023-.019-.272-.81-.295-.893-.089-.318-.147-.638-.221-.959-.215-.936.091,1.72.064.319-.006-.322-.027-.642-.023-.965.004-.345.154-1.779-.014-.567-.17,1.225.029-.051.09-.31.063-.267.137-.532.222-.793.041-.126.095-.251.132-.378.202-.694-.665,1.401-.33.769.14-.263.26-.534.408-.794.145-.254.301-.501.465-.743.354-.522,1.006-.907-.31.37.41-.398.758-.874,1.163-1.282,1.778-1.792,3.847-3.283,5.47-5.229,2.795-3.349,4.354-7.133,4.407-11.542.04-3.27-2.903-6.4-6.25-6.25-3.42.153-6.208,2.746-6.25,6.25h0Z"/></g></svg>